<svg width="16" height="11" viewBox="0 0 16 11" fill="none" xmlns="http://www.w3.org/2000/svg">
<path d="M15.5389 10.5C15.5389 10.6326 15.4863 10.7598 15.3925 10.8536C15.2987 10.9473 15.1715 11 15.0389 11H1.49999C1.36738 11 1.24021 10.9473 1.14644 10.8536C1.05267 10.7598 0.999992 10.6326 0.999992 10.5C0.999992 10.3674 1.05267 10.2402 1.14644 10.1464C1.24021 10.0527 1.36738 10 1.49999 10H15.0389C15.1715 10 15.2987 10.0527 15.3925 10.1464C15.4863 10.2402 15.5389 10.3674 15.5389 10.5ZM15.3944 2.4225L14.2294 0.929376L14.2219 0.920001C13.8451 0.455956 13.314 0.142997 12.7255 0.0383368C12.137 -0.0663237 11.5305 0.0443058 11.0169 0.350001L7.79374 2.27375L4.42249 1.03375C4.30982 0.99174 4.18579 0.99174 4.07312 1.03375L3.62499 1.20438L3.60499 1.2125C3.45168 1.27831 3.31728 1.38143 3.21401 1.51246C3.11075 1.6435 3.04191 1.79829 3.01377 1.96273C2.98563 2.12718 2.99907 2.29605 3.05289 2.45397C3.1067 2.61189 3.19917 2.75383 3.32187 2.86688L4.68749 4.19125L3.42687 4.95375L1.66062 4.3575C1.53561 4.31538 1.39903 4.32437 1.28062 4.3825L1.09312 4.47438C0.943107 4.54141 0.811926 4.64437 0.711173 4.77416C0.61042 4.90395 0.5432 5.05657 0.515457 5.21852C0.487714 5.38046 0.500303 5.54675 0.55211 5.70268C0.603918 5.8586 0.693348 5.99936 0.812492 6.1125L3.06249 8.31688L3.06999 8.32438C3.53088 8.76 4.14081 9.00303 4.77499 9.00375C5.22019 9.00297 5.65718 8.8839 6.04124 8.65875L15.2544 3.15875C15.3152 3.12242 15.3675 3.07359 15.408 3.01549C15.4485 2.95739 15.4762 2.89135 15.4893 2.82175C15.5024 2.75214 15.5005 2.68055 15.4838 2.61172C15.4671 2.54289 15.436 2.4784 15.3925 2.4225H15.3944Z" fill="#205CDE"/>
</svg>
